PathFileType	4	(X/Y/Z)	Patient4_TMGait_0pt6_02_left_11.trc.trc
DataRate	CameraRate	NumFrames	NumMarkers	Units	OrigDataRate	OrigDataStartFrame	OrigNumFrames
85.889570552147	85.889570552147	5	33	mm	85.889570552147	89	       141
Frame#	Time	Sacral			L.Shoulder			Chest			R.Shoulder			Neck			R.ASIS			L.ASIS			R.Thigh.Superior			R.Thigh.Lateral			R.Thigh.Inferior			R.Patella			L.Thigh.Superior			L.Thigh.Lateral			L.Thigh.Inferior			L.Patella			L.Shank.Superior			L.Shank.Lateral			L.Shank.Inferior			R.Shank.Superior			R.Shank.Lateral			R.Shank.Inferior			R.Heel			R.Midfoot.Superior			R.Midfoot.Lateral			R.Toe			L.Heel			L.Midfoot.Lateral			L.Midfoot.Superior			L.Toe			L.Elbow			L.Wrist			R.Elbow			R.Wrist			
		X1	Y1	Z1	X2	Y2	Z2	X3	Y3	Z3	X4	Y4	Z4	X5	Y5	Z5	X6	Y6	Z6	X7	Y7	Z7	X8	Y8	Z8	X9	Y9	Z9	X10	Y10	Z10	X11	Y11	Z11	X12	Y12	Z12	X13	Y13	Z13	X14	Y14	Z14	X15	Y15	Z15	X16	Y16	Z16	X17	Y17	Z17	X18	Y18	Z18	X19	Y19	Z19	X20	Y20	Z20	X21	Y21	Z21	X22	Y22	Z22	X23	Y23	Z23	X24	Y24	Z24	X25	Y25	Z25	X26	Y26	Z26	X27	Y27	Z27	X28	Y28	Z28	X29	Y29	Z29	X30	Y30	Z30	X31	Y31	Z31	X32	Y32	Z32	X33	Y33	Z33	

89	14.594571428571	728.316707944959	994.079360191181	493.170669028954	901.900115199875	1427.776635244321	319.400605008272	1004.837391020210	1355.866699701608	479.527822543736	919.828162940585	1429.324858212422	652.836974242014	899.280049626746	1486.835962745766	471.545512083665	953.832911773908	940.170062667619	618.423311469285	946.341791286182	951.276976890505	343.531406863591	1018.446442498890	747.514066891552	590.803484601188	948.944316320391	630.980861694075	643.837092906640	1034.193737708087	589.182142268919	564.492574246433	1045.576185733424	499.173344956769	568.865307886055	1016.776274861784	752.420783929974	376.542373617111	958.505894758869	627.145679182374	302.907477873770	1054.885352415345	555.983252584277	365.963141185213	1056.716223271176	464.974976070432	361.492693809653	983.736855014746	404.717359459973	353.833869053445	839.718233185450	375.889679003487	303.697503329821	812.966927238151	250.495087166379	360.264335070795	1020.253564775831	407.792959052477	573.679351911216	953.210631819072	299.456043748285	632.675293171394	1000.217008737281	208.499732420732	567.490527130495	872.556566316058	41.323661528785	533.145028883439	1043.596520598028	98.762380410349	566.492450751467	957.270640645903	36.342530144949	606.424336787671	1164.273526917058	49.583580345173	591.071113278383	615.538293056459	204.092406003396	397.995244750821	668.657346301240	161.698339813691	312.920768749675	774.006789976345	155.618870906729	334.324559301348	839.849828406043	40.520510734249	293.694170236346	826.987414059002	1081.040280286032	210.203523738721	954.076900982214	850.701287257562	207.433309698519	878.529566398336	1084.522445991109	777.258694588847	987.777291678775	847.412669804201	791.041547420749	
90	14.606214285714	728.399817602400	995.146862335036	495.918722047830	900.616144766172	1428.689211973825	320.924005063489	1004.619595876967	1356.786492676916	480.369184914284	920.892683509519	1430.322739504418	654.173640177633	899.087739848569	1487.835734692923	473.040915607350	953.891398211058	941.000332677154	619.919237979119	945.360213944457	952.356477266563	345.186354726693	1016.383163479229	747.044221602253	592.383317895927	945.617580629067	631.027880141483	645.204855332941	1030.483839432468	588.548046483350	565.852400351325	1040.825920960182	498.471824828240	570.045951818117	1019.242973391352	756.746278097177	377.449538532988	963.376493327214	630.616769004085	303.489466804016	1062.087013535194	561.533644163537	365.595013571641	1065.939689738227	470.258558714689	361.160146623443	993.295118237972	409.017697255485	354.103154763390	849.089774675649	379.829722053670	304.671090224584	823.033491623130	254.276367119883	361.429844962089	1015.002232073194	407.366112382421	574.659841087230	947.258377293202	299.312416284251	633.350716259001	993.794672617082	208.261272467334	567.959210680808	865.505720550037	41.339428709252	533.239741847367	1036.592453208785	98.752879067439	566.715866329413	950.208461006400	36.299334446927	606.528025078536	1157.228554173644	49.455443092663	591.175833773132	625.989131894386	207.659904456136	399.945979727681	678.908174106427	165.024433411039	314.843771611802	784.273834132797	158.990819850909	335.955015554045	849.936396928790	42.853195161520	295.409986648950	823.649111010337	1082.300799655780	211.918723418118	947.576758252044	850.300510104394	207.628260743274	883.360649212055	1085.460787764387	780.110821324195	1000.018835341786	851.750085992996	790.780877758603	
91	14.617857142857	728.356278232739	996.178460374384	498.474121374629	899.263067816583	1429.551981797724	322.405690806096	1004.354396207939	1357.651997996087	481.145382227794	921.968230883875	1431.308065012296	655.443979890839	898.860837299833	1488.799487778867	474.470818400912	953.883909065656	941.748924471109	621.336570044761	944.342317227563	953.467907570780	346.740523389762	1014.293228436070	746.611790119949	593.796127024750	942.245658251395	631.114251958883	646.440433573726	1026.748378606610	587.934814710996	567.144250333744	1036.022438151783	497.803645143549	571.173617181779	1021.331889522881	761.008185973216	378.232008753930	967.733974193564	634.201168064766	303.889415004713	1068.530153987256	567.112976013090	365.138096557072	1074.443782162166	475.719236124582	360.658758923911	1002.487258614634	413.337658258833	354.167372855081	858.390540212251	382.766947393745	305.289762378093	833.853562151472	256.925652104659	362.287625811417	1009.730484052569	406.977204549449	575.581550877273	941.271845915094	299.215487836276	633.970936314017	987.377683143113	208.053280711993	568.395108696332	858.438720511849	41.384162523132	533.323164492330	1029.597137173409	98.708826890216	566.930442299123	943.134249123480	36.276131811100	606.617786372877	1150.188330839827	49.255616565161	591.256914237786	637.573237569209	208.436086026082	401.444636022761	690.708794409512	166.006744214068	316.393216562108	796.032304587029	161.112909574119	337.245067435068	862.660173956720	44.999981776651	296.969238441429	819.980718809436	1083.574613574162	213.568067763852	940.717476192850	849.995237436148	207.525147847071	888.321719283322	1086.444715497626	782.860950983612	1012.318541613469	856.445174952228	790.194322708511	
92	14.629500000000	728.159637594958	997.180462083461	500.832917794738	897.839560070035	1430.384064307104	323.863025968590	1004.033706010756	1358.469796955577	481.869313210854	923.041912343158	1432.276681866084	656.670221109322	898.607976565415	1489.729514284825	475.856738797433	953.829144005436	942.438918363390	622.649208708379	943.279166216396	954.613996007920	348.167321444189	1012.185268358341	746.228586546201	595.041654548085	938.843652785994	631.253568913923	647.555626705467	1022.993284424532	587.348786481689	568.373119720727	1031.179692436486	497.175738338311	572.259243962092	1023.049571998429	765.167178113357	378.937848851599	971.665186731962	637.839218730533	304.111231234789	1074.262968758234	572.630553370340	364.642770542072	1082.239432567239	481.265973481494	360.008344010601	1011.320161010550	417.601335366867	354.014486784919	867.620749043343	384.673335884845	305.573618057198	845.433001214345	258.421643997265	362.799619590989	1004.445155514721	406.630723404293	576.455434175064	935.254130328855	299.171806999695	634.543290081650	980.973212354561	207.880890207104	568.808023101585	851.366825961010	41.450466579698	533.400423896458	1022.617265606284	98.637136882218	567.134871633191	936.059912749682	36.272057353973	606.696773671057	1143.160951529168	49.005077846811	591.326311087568	650.307578988533	206.527703017671	402.487759119567	704.011651437053	164.738603361707	317.522075294608	809.256882156511	161.942126649936	338.123401613306	877.862761543214	46.801312663704	298.208597570063	816.060712794765	1084.867827490242	215.194995095623	933.496259687450	849.742694617531	207.176094447782	893.406140560817	1087.447157866766	785.462894194852	1024.681457849903	861.505037311757	789.242641748634	
93	14.641142857143	727.803896628725	998.157788117174	503.000470667443	896.341904621722	1431.203250499044	325.310234021719	1003.649260967777	1359.245970680803	482.550152269260	924.096823194938	1433.214525265329	657.870607946383	898.333670707765	1490.626251524675	477.220556764397	953.743661272152	943.090632438260	623.826291421650	942.162727785521	955.791717734705	349.440950784170	1010.051943866286	745.898190993740	596.120419344603	935.416523985153	631.450741760880	648.565123410716	1019.210292014628	586.791354917534	569.541396062254	1026.296593539876	496.591673002413	573.313263671668	1024.403782081426	769.182548610598	379.597085491625	975.230615718187	641.466761173385	304.161628094679	1079.324007219226	577.997953680637	364.147457197164	1089.331022239986	486.810333466707	359.231341542754	1019.786769604192	421.745597119646	353.635619282217	876.772228165209	385.563911991929	305.558174927849	857.753565271758	258.799556764947	362.937359327924	999.140301503915	406.326182442339	577.289670980531	929.201553547659	299.181183966139	635.072520402840	974.581530275679	207.745152138705	569.205072079697	844.299424130765	41.530116597905	533.473805386714	1015.657022803767	98.548246779677	567.326461709475	928.994106255550	36.284301754147	606.765952718899	1136.151147184020	48.722520265094	591.394855969050	664.211625639771	202.130197380382	403.091862148837	718.753041303389	161.405357209966	318.200390205210	823.884504409940	161.516379097145	338.532949804649	895.317134115382	48.169522732574	298.969290742856	811.965545593993	1086.185487796029	216.830469465991	925.930691153084	849.516860885226	206.641256972378	898.601448434656	1088.431171397937	787.871645331896	1037.112437496304	866.931395901459	787.890250238328	
